<svg xmlns="http://www.w3.org/2000/svg" viewBox="0 0 560 180" preserveAspectRatio="xMidYMid meet">
  <defs>
    <linearGradient id="bg" x1="0%" y1="0%" x2="100%" y2="100%">
      <stop offset="0%" style="stop-color:#0a0014"/>
      <stop offset="100%" style="stop-color:#1a0033"/>
    </linearGradient>
    <filter id="glow">
      <feGaussianBlur stdDeviation="2" result="blur"/>
      <feMerge><feMergeNode in="blur"/><feMergeNode in="SourceGraphic"/></feMerge>
    </filter>
  </defs>
  
  <!-- Fondo con borde -->
  <rect width="560" height="180" fill="url(#bg)"/>
  <rect x="2" y="2" width="556" height="176" fill="none" stroke="#7c3aed" stroke-width="2" rx="8"/>
  
  <!-- Terminal VICTIM -->
  <rect x="40" y="20" width="200" height="140" rx="8" fill="#0d0620" stroke="#00b4d8" stroke-width="2"/>
  <rect x="40" y="20" width="200" height="24" rx="8" fill="#0d3050"/>
  <rect x="40" y="40" width="200" height="4" fill="#0d3050"/>
  <circle cx="56" cy="32" r="5" fill="#ff5f56"/>
  <circle cx="72" cy="32" r="5" fill="#ffbd2e"/>
  <circle cx="88" cy="32" r="5" fill="#27ca40"/>
  <text x="140" y="36" fill="#48cae4" font-family="monospace" font-size="10" text-anchor="middle">VICTIM</text>
  
  <g font-family="monospace" font-size="11">
    <text x="52" y="65" fill="#00b4d8">$</text>
    <text x="65" y="65" fill="#00ffff">./shell</text>
    <text x="52" y="85" fill="#6b4d9a">[*] connect()</text>
    <text x="52" y="105" fill="#00ff88">[+] connected!</text>
    <text x="52" y="125" fill="#6b4d9a">[*] dup2()</text>
    <text x="52" y="145" fill="#6b4d9a">[*] execve()</text>
  </g>
  
  <!-- Flecha conexión -->
  <g filter="url(#glow)">
    <line x1="250" y1="90" x2="310" y2="90" stroke="#ff00ff" stroke-width="4" stroke-dasharray="12,6">
      <animate attributeName="stroke-dashoffset" values="18;0" dur="0.5s" repeatCount="indefinite"/>
    </line>
    <polygon points="310,90 298,82 298,98" fill="#ff00ff"/>
  </g>
  <text x="280" y="115" fill="#c084fc" font-family="monospace" font-size="12" text-anchor="middle">:4444</text>
  
  <!-- Terminal ATTACKER -->
  <rect x="320" y="20" width="200" height="140" rx="8" fill="#0d0620" stroke="#a855f7" stroke-width="2"/>
  <rect x="320" y="20" width="200" height="24" rx="8" fill="#2d1b4e"/>
  <rect x="320" y="40" width="200" height="4" fill="#2d1b4e"/>
  <circle cx="336" cy="32" r="5" fill="#ff5f56"/>
  <circle cx="352" cy="32" r="5" fill="#ffbd2e"/>
  <circle cx="368" cy="32" r="5" fill="#27ca40"/>
  <text x="420" y="36" fill="#c084fc" font-family="monospace" font-size="10" text-anchor="middle">ATTACKER</text>
  
  <g font-family="monospace" font-size="11">
    <text x="332" y="65" fill="#a855f7">$</text>
    <text x="345" y="65" fill="#ff00ff">nc -lvnp 4444</text>
    <text x="332" y="85" fill="#6b4d9a">listening...</text>
    <text x="332" y="105" fill="#00ff88">connected!</text>
    <text x="332" y="125" fill="#00ffff">root@server:~#</text>
    <rect x="455" y="113" width="8" height="14" fill="#00ffff">
      <animate attributeName="opacity" values="1;0;1" dur="1s" repeatCount="indefinite"/>
    </rect>
  </g>
</svg>
