<svg xmlns="http://www.w3.org/2000/svg" width="1200" height="360" viewBox="0 0 1200 360">
  <defs>
    <linearGradient id="bg" x1="0" y1="0" x2="1" y2="1">
      <stop offset="0" stop-color="#0b0712"/>
      <stop offset="1" stop-color="#130a22"/>
    </linearGradient>
    <linearGradient id="glow" x1="0" y1="0" x2="1" y2="0">
      <stop offset="0" stop-color="#b56bff" stop-opacity="0.85"/>
      <stop offset="1" stop-color="#b56bff" stop-opacity="0.15"/>
    </linearGradient>
    <filter id="shadow" x="-20%" y="-40%" width="140%" height="180%">
      <feDropShadow dx="0" dy="18" stdDeviation="18" flood-color="#000" flood-opacity="0.55"/>
    </filter>
  </defs>

  <rect x="0" y="0" width="1200" height="360" rx="22" fill="url(#bg)"/>
  <path d="M52 72 L170 72 L208 40 L1148 40 L1148 308 L1030 308 L992 340 L52 340 Z"
        fill="none" stroke="url(#glow)" stroke-width="3" opacity="0.9"/>
  <path d="M80 110 L360 110" stroke="#b56bff" stroke-width="2" opacity="0.35"/>
  <path d="M80 130 L420 130" stroke="#b56bff" stroke-width="2" opacity="0.18"/>

  <g filter="url(#shadow)">
    <text x="92" y="210" fill="#f5f3ff" font-family="JetBrains Mono, ui-monospace, SFMono-Regular, Menlo, monospace"
          font-size="54" font-weight="700" letter-spacing="1">Shellcode</text>
    <text x="92" y="255" fill="#c4b5fd" font-family="JetBrains Mono, ui-monospace, SFMono-Regular, Menlo, monospace"
          font-size="26" letter-spacing="0.2">Syscalls · x86_64</text>
  </g>

  <g opacity="0.45">
    <circle cx="1046" cy="98" r="6" fill="#b56bff"/>
    <circle cx="1076" cy="98" r="4" fill="#b56bff" opacity="0.6"/>
    <circle cx="1102" cy="98" r="3" fill="#b56bff" opacity="0.35"/>
  </g>

  <g opacity="0.35">
    <path d="M914 228 h210" stroke="#b56bff" stroke-width="2"/>
    <path d="M914 252 h160" stroke="#b56bff" stroke-width="2" opacity="0.6"/>
    <path d="M914 276 h120" stroke="#b56bff" stroke-width="2" opacity="0.35"/>
  </g>
</svg>
